<?xml version="1.0" encoding="UTF-8" standalone="no"?>
<!-- Generator: Adobe Illustrator 18.0.0, SVG Export Plug-In . SVG Version: 6.00 Build 0)  -->

<svg
   xmlns:dc="http://purl.org/dc/elements/1.1/"
   xmlns:cc="http://creativecommons.org/ns#"
   xmlns:rdf="http://www.w3.org/1999/02/22-rdf-syntax-ns#"
   xmlns:svg="http://www.w3.org/2000/svg"
   xmlns="http://www.w3.org/2000/svg"
   xmlns:sodipodi="http://sodipodi.sourceforge.net/DTD/sodipodi-0.dtd"
   xmlns:inkscape="http://www.inkscape.org/namespaces/inkscape"
   version="1.1"
   id="Capa_1"
   x="0px"
   y="0px"
   viewBox="0 0 65.333344 67.695198"
   xml:space="preserve"
   inkscape:version="0.91 r13725"
   sodipodi:docname="user-check.svg"
   width="65.333344"
   height="67.695198"><metadata
     id="metadata49"><rdf:RDF><cc:Work
         rdf:about=""><dc:format>image/svg+xml</dc:format><dc:type
           rdf:resource="http://purl.org/dc/dcmitype/StillImage" /><dc:title></dc:title></cc:Work></rdf:RDF></metadata><defs
     id="defs47"><clipPath
       clipPathUnits="userSpaceOnUse"
       id="clipPath4209"><path
         style="opacity:1;fill:#e6e6e6;fill-opacity:1;fill-rule:evenodd;stroke:none;stroke-width:0.523;stroke-miterlimit:4;stroke-dasharray:none;stroke-opacity:1"
         d="M 64.338741,25.386573 A 35.186417,36.469681 0 0 1 29.152325,61.856254 35.186417,36.469681 0 0 1 -6.034091,25.386573 a 35.186417,36.469681 0 0 1 35.186416,-36.46968 35.186417,36.469681 0 0 1 35.186416,36.46968 z"
         id="path4211"
         inkscape:connector-curvature="0" /></clipPath><clipPath
       clipPathUnits="userSpaceOnUse"
       id="clipPath4289"><path
         inkscape:connector-curvature="0"
         id="path4291"
         d="M 59.365117,30.247932 A 30.666672,31.785099 0 0 1 28.698445,62.03303 30.666672,31.785099 0 0 1 -1.968226,30.247932 30.666672,31.785099 0 0 1 28.698445,-1.537166 30.666672,31.785099 0 0 1 59.365117,30.247932 Z"
         style="opacity:1;fill:#e6e6e6;fill-opacity:1;fill-rule:evenodd;stroke:none;stroke-width:0.523;stroke-miterlimit:4;stroke-dasharray:none;stroke-opacity:1" /></clipPath><clipPath
       clipPathUnits="userSpaceOnUse"
       id="clipPath4293"><path
         inkscape:connector-curvature="0"
         id="path4295"
         d="M -5.5119311,13.100594 A 30.666672,31.785099 0 0 1 -36.178603,44.885692 30.666672,31.785099 0 0 1 -66.845274,13.100594 30.666672,31.785099 0 0 1 -36.178603,-18.684504 30.666672,31.785099 0 0 1 -5.5119311,13.100594 Z"
         style="opacity:1;fill:#e6e6e6;fill-opacity:1;fill-rule:evenodd;stroke:none;stroke-width:0.523;stroke-miterlimit:4;stroke-dasharray:none;stroke-opacity:1" /></clipPath><clipPath
       clipPathUnits="userSpaceOnUse"
       id="clipPath4297"><path
         inkscape:connector-curvature="0"
         id="path4299"
         d="M -5.5119311,13.100594 A 30.666672,31.785099 0 0 1 -36.178603,44.885692 30.666672,31.785099 0 0 1 -66.845274,13.100594 30.666672,31.785099 0 0 1 -36.178603,-18.684504 30.666672,31.785099 0 0 1 -5.5119311,13.100594 Z"
         style="opacity:1;fill:#e6e6e6;fill-opacity:1;fill-rule:evenodd;stroke:none;stroke-width:0.523;stroke-miterlimit:4;stroke-dasharray:none;stroke-opacity:1" /></clipPath><clipPath
       clipPathUnits="userSpaceOnUse"
       id="clipPath4301"><path
         inkscape:connector-curvature="0"
         id="path4303"
         d="M -5.5119311,13.100594 A 30.666672,31.785099 0 0 1 -36.178603,44.885692 30.666672,31.785099 0 0 1 -66.845274,13.100594 30.666672,31.785099 0 0 1 -36.178603,-18.684504 30.666672,31.785099 0 0 1 -5.5119311,13.100594 Z"
         style="opacity:1;fill:#e6e6e6;fill-opacity:1;fill-rule:evenodd;stroke:none;stroke-width:0.523;stroke-miterlimit:4;stroke-dasharray:none;stroke-opacity:1" /></clipPath><clipPath
       clipPathUnits="userSpaceOnUse"
       id="clipPath4305"><path
         inkscape:connector-curvature="0"
         id="path4307"
         d="M -5.5119311,13.100594 A 30.666672,31.785099 0 0 1 -36.178603,44.885692 30.666672,31.785099 0 0 1 -66.845274,13.100594 30.666672,31.785099 0 0 1 -36.178603,-18.684504 30.666672,31.785099 0 0 1 -5.5119311,13.100594 Z"
         style="opacity:1;fill:#e6e6e6;fill-opacity:1;fill-rule:evenodd;stroke:none;stroke-width:0.523;stroke-miterlimit:4;stroke-dasharray:none;stroke-opacity:1" /></clipPath><clipPath
       clipPathUnits="userSpaceOnUse"
       id="clipPath4309"><path
         inkscape:connector-curvature="0"
         id="path4311"
         d="M -5.5119311,13.100594 A 30.666672,31.785099 0 0 1 -36.178603,44.885692 30.666672,31.785099 0 0 1 -66.845274,13.100594 30.666672,31.785099 0 0 1 -36.178603,-18.684504 30.666672,31.785099 0 0 1 -5.5119311,13.100594 Z"
         style="opacity:1;fill:#e6e6e6;fill-opacity:1;fill-rule:evenodd;stroke:none;stroke-width:0.523;stroke-miterlimit:4;stroke-dasharray:none;stroke-opacity:1" /></clipPath><clipPath
       clipPathUnits="userSpaceOnUse"
       id="clipPath4313"><path
         inkscape:connector-curvature="0"
         id="path4315"
         d="M -5.5119311,13.100594 A 30.666672,31.785099 0 0 1 -36.178603,44.885692 30.666672,31.785099 0 0 1 -66.845274,13.100594 30.666672,31.785099 0 0 1 -36.178603,-18.684504 30.666672,31.785099 0 0 1 -5.5119311,13.100594 Z"
         style="opacity:1;fill:#e6e6e6;fill-opacity:1;fill-rule:evenodd;stroke:none;stroke-width:0.523;stroke-miterlimit:4;stroke-dasharray:none;stroke-opacity:1" /></clipPath><clipPath
       clipPathUnits="userSpaceOnUse"
       id="clipPath4317"><path
         inkscape:connector-curvature="0"
         id="path4319"
         d="M -5.5119311,13.100594 A 30.666672,31.785099 0 0 1 -36.178603,44.885692 30.666672,31.785099 0 0 1 -66.845274,13.100594 30.666672,31.785099 0 0 1 -36.178603,-18.684504 30.666672,31.785099 0 0 1 -5.5119311,13.100594 Z"
         style="opacity:1;fill:#e6e6e6;fill-opacity:1;fill-rule:evenodd;stroke:none;stroke-width:0.523;stroke-miterlimit:4;stroke-dasharray:none;stroke-opacity:1" /></clipPath><clipPath
       clipPathUnits="userSpaceOnUse"
       id="clipPath4321"><path
         inkscape:connector-curvature="0"
         id="path4323"
         d="M -5.5119311,13.100594 A 30.666672,31.785099 0 0 1 -36.178603,44.885692 30.666672,31.785099 0 0 1 -66.845274,13.100594 30.666672,31.785099 0 0 1 -36.178603,-18.684504 30.666672,31.785099 0 0 1 -5.5119311,13.100594 Z"
         style="opacity:1;fill:#e6e6e6;fill-opacity:1;fill-rule:evenodd;stroke:none;stroke-width:0.523;stroke-miterlimit:4;stroke-dasharray:none;stroke-opacity:1" /></clipPath><clipPath
       clipPathUnits="userSpaceOnUse"
       id="clipPath4325"><path
         inkscape:connector-curvature="0"
         id="path4327"
         d="M -5.5119311,13.100594 A 30.666672,31.785099 0 0 1 -36.178603,44.885692 30.666672,31.785099 0 0 1 -66.845274,13.100594 30.666672,31.785099 0 0 1 -36.178603,-18.684504 30.666672,31.785099 0 0 1 -5.5119311,13.100594 Z"
         style="opacity:1;fill:#e6e6e6;fill-opacity:1;fill-rule:evenodd;stroke:none;stroke-width:0.523;stroke-miterlimit:4;stroke-dasharray:none;stroke-opacity:1" /></clipPath><clipPath
       clipPathUnits="userSpaceOnUse"
       id="clipPath4329"><path
         inkscape:connector-curvature="0"
         id="path4331"
         d="M -5.5119311,13.100594 A 30.666672,31.785099 0 0 1 -36.178603,44.885692 30.666672,31.785099 0 0 1 -66.845274,13.100594 30.666672,31.785099 0 0 1 -36.178603,-18.684504 30.666672,31.785099 0 0 1 -5.5119311,13.100594 Z"
         style="opacity:1;fill:#e6e6e6;fill-opacity:1;fill-rule:evenodd;stroke:none;stroke-width:0.523;stroke-miterlimit:4;stroke-dasharray:none;stroke-opacity:1" /></clipPath><clipPath
       clipPathUnits="userSpaceOnUse"
       id="clipPath4333"><path
         inkscape:connector-curvature="0"
         id="path4335"
         d="M -5.5119311,13.100594 A 30.666672,31.785099 0 0 1 -36.178603,44.885692 30.666672,31.785099 0 0 1 -66.845274,13.100594 30.666672,31.785099 0 0 1 -36.178603,-18.684504 30.666672,31.785099 0 0 1 -5.5119311,13.100594 Z"
         style="opacity:1;fill:#e6e6e6;fill-opacity:1;fill-rule:evenodd;stroke:none;stroke-width:0.523;stroke-miterlimit:4;stroke-dasharray:none;stroke-opacity:1" /></clipPath><clipPath
       clipPathUnits="userSpaceOnUse"
       id="clipPath4337"><path
         inkscape:connector-curvature="0"
         id="path4339"
         d="M -5.5119311,13.100594 A 30.666672,31.785099 0 0 1 -36.178603,44.885692 30.666672,31.785099 0 0 1 -66.845274,13.100594 30.666672,31.785099 0 0 1 -36.178603,-18.684504 30.666672,31.785099 0 0 1 -5.5119311,13.100594 Z"
         style="opacity:1;fill:#e6e6e6;fill-opacity:1;fill-rule:evenodd;stroke:none;stroke-width:0.523;stroke-miterlimit:4;stroke-dasharray:none;stroke-opacity:1" /></clipPath><clipPath
       clipPathUnits="userSpaceOnUse"
       id="clipPath4341"><path
         inkscape:connector-curvature="0"
         id="path4343"
         d="M -5.5119311,13.100594 A 30.666672,31.785099 0 0 1 -36.178603,44.885692 30.666672,31.785099 0 0 1 -66.845274,13.100594 30.666672,31.785099 0 0 1 -36.178603,-18.684504 30.666672,31.785099 0 0 1 -5.5119311,13.100594 Z"
         style="opacity:1;fill:#e6e6e6;fill-opacity:1;fill-rule:evenodd;stroke:none;stroke-width:0.523;stroke-miterlimit:4;stroke-dasharray:none;stroke-opacity:1" /></clipPath><clipPath
       clipPathUnits="userSpaceOnUse"
       id="clipPath4345"><path
         inkscape:connector-curvature="0"
         id="path4347"
         d="M -5.5119311,13.100594 A 30.666672,31.785099 0 0 1 -36.178603,44.885692 30.666672,31.785099 0 0 1 -66.845274,13.100594 30.666672,31.785099 0 0 1 -36.178603,-18.684504 30.666672,31.785099 0 0 1 -5.5119311,13.100594 Z"
         style="opacity:1;fill:#e6e6e6;fill-opacity:1;fill-rule:evenodd;stroke:none;stroke-width:0.523;stroke-miterlimit:4;stroke-dasharray:none;stroke-opacity:1" /></clipPath><clipPath
       clipPathUnits="userSpaceOnUse"
       id="clipPath4349"><path
         inkscape:connector-curvature="0"
         id="path4351"
         d="M -5.5119311,13.100594 A 30.666672,31.785099 0 0 1 -36.178603,44.885692 30.666672,31.785099 0 0 1 -66.845274,13.100594 30.666672,31.785099 0 0 1 -36.178603,-18.684504 30.666672,31.785099 0 0 1 -5.5119311,13.100594 Z"
         style="opacity:1;fill:#e6e6e6;fill-opacity:1;fill-rule:evenodd;stroke:none;stroke-width:0.523;stroke-miterlimit:4;stroke-dasharray:none;stroke-opacity:1" /></clipPath></defs><sodipodi:namedview
     pagecolor="#868686"
     bordercolor="#666666"
     borderopacity="1"
     objecttolerance="10"
     gridtolerance="10"
     guidetolerance="10"
     inkscape:pageopacity="0"
     inkscape:pageshadow="2"
     inkscape:window-width="640"
     inkscape:window-height="480"
     id="namedview45"
     showgrid="false"
     fit-margin-top="2"
     fit-margin-left="2"
     fit-margin-right="2"
     fit-margin-bottom="2"
     inkscape:zoom="8"
     inkscape:cx="7.0340511"
     inkscape:cy="32.983319"
     inkscape:current-layer="Capa_1" /><g
     id="g15"
     clip-path="url(#clipPath4349)"
     transform="translate(115.6911,0.3551838)" /><g
     id="g17"
     clip-path="url(#clipPath4345)"
     transform="translate(115.6911,0.3551838)" /><g
     id="g19"
     clip-path="url(#clipPath4341)"
     transform="translate(115.6911,0.3551838)" /><g
     id="g21"
     clip-path="url(#clipPath4337)"
     transform="translate(115.6911,0.3551838)" /><g
     id="g23"
     clip-path="url(#clipPath4333)"
     transform="translate(115.6911,0.3551838)" /><g
     id="g25"
     clip-path="url(#clipPath4329)"
     transform="translate(115.6911,0.3551838)" /><g
     id="g27"
     clip-path="url(#clipPath4325)"
     transform="translate(115.6911,0.3551838)" /><g
     id="g29"
     clip-path="url(#clipPath4321)"
     transform="translate(115.6911,0.3551838)" /><g
     id="g31"
     clip-path="url(#clipPath4317)"
     transform="translate(115.6911,0.3551838)" /><g
     id="g33"
     clip-path="url(#clipPath4313)"
     transform="translate(115.6911,0.3551838)" /><g
     id="g35"
     clip-path="url(#clipPath4309)"
     transform="translate(115.6911,0.3551838)" /><g
     id="g37"
     clip-path="url(#clipPath4305)"
     transform="translate(115.6911,0.3551838)" /><g
     id="g39"
     clip-path="url(#clipPath4301)"
     transform="translate(115.6911,0.3551838)" /><g
     id="g41"
     clip-path="url(#clipPath4297)"
     transform="translate(115.6911,0.3551838)" /><g
     id="g43"
     clip-path="url(#clipPath4293)"
     transform="translate(115.6911,0.3551838)" /><g
     id="g3459"
     transform="translate(2,2)"><path
       inkscape:connector-curvature="0"
       id="use4285"
       d="M 61.333344,31.785098 A 30.666672,31.785099 0 0 1 30.666671,63.570196 30.666672,31.785099 0 0 1 0,31.785098 30.666672,31.785099 0 0 1 30.666671,0 30.666672,31.785099 0 0 1 61.333344,31.785098 Z"
       style="opacity:1;fill:#ffffff;fill-opacity:1;fill-rule:evenodd;stroke:none;stroke-width:0.523;stroke-miterlimit:4;stroke-dasharray:none;stroke-opacity:1" /><g
       clip-path="url(#clipPath4289)"
       transform="translate(2.0932237,1.6621664)"
       id="g5"><g
         transform="translate(-0.70710678,7.7781746)"
         id="g4217"><path
           inkscape:connector-curvature="0"
           id="path7"
           d="M 53.566,44.283 44.014,39.507 C 42.78,38.89 42,37.628 42,36.248 L 42,32.5 c 0.268,-0.305 0.576,-0.698 0.904,-1.162 C 44.206,29.5 45.19,27.477 45.873,25.354 47.098,24.977 48,23.845 48,22.5 l 0,-4 c 0,-0.88 -0.391,-1.667 -1,-2.217 L 47,10.5 c 0,0 1.187,-9 -11,-9 -12.188,0 -11,9 -11,9 l 0,5.783 c -0.609,0.55 -1,1.337 -1,2.217 l 0,4 c 0,1.054 0.554,1.981 1.383,2.517 C 26.382,29.369 29,32.5 29,32.5 l 0,3.655 c 0,1.333 -0.728,2.56 -1.899,3.198 L 18.18,44.22 C 15.603,45.625 14,48.326 14,51.261 l 0,3.239 44,0 0,-3.043 c 0,-3.038 -1.717,-5.815 -4.434,-7.174 z"
           style="fill:#8697cb" /><path
           inkscape:connector-curvature="0"
           id="path9"
           d="m 18.18,44.22 5.946,-3.243 c -0.034,-0.033 -0.005,-0.043 0.065,-0.036 l 2.91,-1.587 C 28.272,38.715 29,37.489 29,36.155 L 29,32.5 c 0,0 -1.062,-1.275 -2.092,-3.323 l 0,0 c 0,-0.001 -0.001,-0.002 -0.001,-0.003 C 26.772,28.906 26.639,28.623 26.508,28.33 26.49,28.289 26.472,28.25 26.454,28.209 26.321,27.906 26.191,27.593 26.068,27.265 26.06,27.244 26.053,27.221 26.045,27.2 25.937,26.91 25.836,26.611 25.739,26.304 25.713,26.22 25.687,26.137 25.662,26.053 25.561,25.715 25.466,25.371 25.384,25.015 24.554,24.481 24,23.554 24,22.5 l 0,-4 c 0,-0.88 0.391,-1.667 1,-2.217 l 0,-5.648 C 23.587,9.539 21.397,8.5 18,8.5 c -9.563,0 -10,8 -10,8 l 0,4.995 C 7.474,21.97 7,22.649 7,23.409 l 0,3.455 c 0,0.911 0.479,1.711 1.194,2.174 0.863,3.758 3.76,6.463 3.76,6.463 l 0,3.157 c 0,1.151 -0.629,2.211 -1.64,2.762 L 3.61,45.622 C 1.385,46.836 0,49.168 0,51.703 l 0,2.797 14,0 0,-3.239 c 0,-2.935 1.603,-5.636 4.18,-7.041 z"
           style="fill:#556080" /></g></g><g
       transform="matrix(0.80491748,0,0,0.80491748,13.107217,16.613537)"
       id="g9166"><circle
         style="fill:#26b999"
         cx="47"
         cy="46"
         r="12"
         id="circle9168" /><path
         inkscape:connector-curvature="0"
         style="fill:#ffffff"
         d="m 53.571,40.179 c -0.455,-0.316 -1.077,-0.204 -1.392,0.25 l -5.596,8.04 -3.949,-3.242 c -0.426,-0.351 -1.057,-0.288 -1.407,0.139 -0.351,0.427 -0.289,1.057 0.139,1.407 l 4.786,3.929 c 0.18,0.147 0.404,0.227 0.634,0.227 0.045,0 0.091,-0.003 0.137,-0.009 0.276,-0.039 0.524,-0.19 0.684,-0.419 l 6.214,-8.929 c 0.315,-0.454 0.203,-1.077 -0.25,-1.393 z"
         id="path9170" /></g></g></svg>